<svg xmlns="http://www.w3.org/2000/svg" viewBox="0 0 128 128" role="img" aria-labelledby="title desc">
  <title>Guardrails</title>
  <desc>Stylised letter G wrapped in rails</desc>
  <defs>
    <linearGradient id="grad" x1="0%" x2="100%" y1="0%" y2="100%">
      <stop offset="0%" stop-color="#ff7154" />
      <stop offset="100%" stop-color="#ff2d20" />
    </linearGradient>
  </defs>
  <rect width="128" height="128" rx="28" fill="#1f1f36" />
  <path
    d="M88 42c0-12.15-10.74-22-24-22s-24 9.85-24 22v44c0 12.15 10.74 22 24 22s24-9.85 24-22v-6H72v12.5c0 4.4-3.58 7.5-8 7.5s-8-3.1-8-7.5V43.5c0-4.4 3.58-7.5 8-7.5s8 3.1 8 7.5V50h16v-8z"
    fill="url(#grad)"
  />
  <rect x="28" y="32" width="8" height="64" rx="4" fill="#fff" opacity="0.35" />
  <rect x="92" y="32" width="8" height="64" rx="4" fill="#fff" opacity="0.35" />
</svg>
