<svg xmlns="http://www.w3.org/2000/svg" viewBox="0 0 1200 630" role="img" aria-labelledby="title desc">
  <title>Guardrails Documentation Hub</title>
  <desc>Open graph card for Guardrails docs</desc>
  <defs>
    <linearGradient id="bg" x1="0%" y1="0%" x2="100%" y2="100%">
      <stop offset="0%" stop-color="#2b2c43" />
      <stop offset="100%" stop-color="#0f101f" />
    </linearGradient>
    <linearGradient id="accent" x1="0%" y1="0%" x2="100%" y2="100%">
      <stop offset="0%" stop-color="#ff7154" />
      <stop offset="100%" stop-color="#ff2d20" />
    </linearGradient>
  </defs>
  <rect width="1200" height="630" fill="url(#bg)" rx="48" />
  <g fill="none" stroke="#ff8575" stroke-width="4" opacity="0.4">
    <rect x="140" y="110" width="420" height="120" rx="28" />
    <rect x="640" y="150" width="360" height="120" rx="28" />
    <rect x="180" y="410" width="360" height="80" rx="20" />
  </g>
  <g transform="translate(120, 160)">
    <rect width="140" height="140" rx="32" fill="#1f1f36" />
    <path d="M120 42c0-24.3-21.5-44-48-44S24 17.7 24 42v76c0 24.3 21.5 44 48 44s48-19.7 48-44v-12H96v24c0 8.8-7.16 16-16 16s-16-7.2-16-16V46c0-8.8 7.16-16 16-16s16 7.2 16 16v12h24V42z" fill="url(#accent)" />
    <rect x="0" y="12" width="16" height="112" rx="8" fill="#ffffff" opacity="0.35" />
    <rect x="124" y="12" width="16" height="112" rx="8" fill="#ffffff" opacity="0.35" />
  </g>
  <text x="320" y="260" fill="#ffffff" font-family="'Inter', 'Segoe UI', sans-serif" font-size="72" font-weight="700">
    Guardrails Documentation Hub
  </text>
  <text x="320" y="330" fill="#d0d0e6" font-family="'Inter', 'Segoe UI', sans-serif" font-size="32">
    Operational approvals engine for Laravel, with versioned docs, playgrounds, and AI answers.
  </text>
  <g fill="#fff" font-family="'Inter', 'Segoe UI', sans-serif" font-size="28" opacity="0.9">
    <text x="320" y="410">• Interactive Playground for flow building</text>
    <text x="320" y="455">• Bring your own API key AI assistant</text>
    <text x="320" y="500">• GitHub Pages CI deploy on every push</text>
  </g>
</svg>
